<svg width="453" height="181" viewBox="0 0 453 181" fill="none" xmlns="http://www.w3.org/2000/svg">
<path d="M220.265 127.61V115.169C220.265 105.224 221.936 97.9245 225.279 93.2695C227.734 89.8418 230.865 88.1279 234.674 88.1279C239.456 88.1279 243.116 90.6458 245.655 95.6816C248.237 100.717 249.527 107.382 249.527 115.677V129.451C249.527 140.242 247.877 147.986 244.576 152.684C242.206 156.069 239.054 157.762 235.118 157.762C232.833 157.762 230.738 157.169 228.834 155.984C226.972 154.799 225.279 152.662 223.756 149.573C222.232 146.484 221.259 142.379 220.836 137.259C220.455 132.138 220.265 128.922 220.265 127.61ZM238.165 96.3164C238.165 93.9466 237.805 92.2962 237.086 91.3652C236.409 90.3919 235.605 89.9053 234.674 89.9053C233.87 89.9053 233.15 90.3073 232.516 91.1113C231.881 91.873 231.563 93.0579 231.563 94.666V147.986C231.563 151.329 231.944 153.593 232.706 154.778C233.299 155.625 234.103 156.048 235.118 156.048C236.091 156.048 236.832 155.688 237.34 154.969C237.89 154.207 238.165 152.599 238.165 150.145V96.3164ZM268.126 155.35L269.649 155.477C269.861 155.604 269.967 155.836 269.967 156.175C269.967 156.429 269.755 156.704 269.332 157H254.288C253.865 156.704 253.653 156.429 253.653 156.175C253.653 155.921 253.865 155.646 254.288 155.35H256.764V90.54H254.288C253.865 90.2861 253.653 90.0322 253.653 89.7783C253.653 89.4821 253.865 89.1859 254.288 88.8896H268.126V93.9678C269.649 91.6826 271.046 90.138 272.315 89.334C273.585 88.5299 275.257 88.1279 277.33 88.1279C279.658 88.1279 281.414 88.6146 282.599 89.5879C283.826 90.5189 284.863 92.2962 285.709 94.9199C287.063 92.2539 288.375 90.4554 289.645 89.5244C290.914 88.5934 292.649 88.1279 294.85 88.1279C297.854 88.1279 300.055 88.8473 301.451 90.2861C302.89 91.6826 303.609 93.6927 303.609 96.3164V155.35H305.704C305.958 155.35 306.17 155.434 306.339 155.604C306.508 155.73 306.593 155.921 306.593 156.175L306.402 156.746C306.191 156.915 305.958 157 305.704 157H290.978C290.554 156.704 290.343 156.429 290.343 156.175C290.343 155.921 290.554 155.646 290.978 155.35H292.311V93.9678C292.311 93.2484 292.12 92.6771 291.739 92.2539C291.401 91.8307 291.02 91.6191 290.597 91.6191C289.666 91.6191 288.756 92.3174 287.867 93.7139C286.428 95.9567 285.709 99.0882 285.709 103.108V155.35H287.105L287.486 155.54C287.613 155.709 287.677 155.921 287.677 156.175C287.677 156.429 287.486 156.704 287.105 157H272.823C272.485 156.746 272.315 156.471 272.315 156.175C272.315 155.879 272.485 155.604 272.823 155.35H274.537V94.9199C274.537 93.7773 274.347 92.9733 273.966 92.5078C273.585 92 273.141 91.7461 272.633 91.7461C271.786 91.7461 271.004 92.2751 270.284 93.333C268.845 95.5335 268.126 97.9456 268.126 100.569V155.35ZM312.877 90.54H310.401C309.978 90.2861 309.767 90.0111 309.767 89.7148C309.767 89.4609 309.978 89.1859 310.401 88.8896H323.414V94.1582C324.684 91.7038 325.784 90.0957 326.715 89.334C327.688 88.5299 328.831 88.1279 330.143 88.1279C333.062 88.1279 335.496 89.7783 337.442 93.0791C340.659 98.3688 342.267 107.827 342.267 121.453C342.267 134.952 341.188 144.389 339.029 149.764C336.871 155.096 333.909 157.762 330.143 157.762C328.958 157.762 327.921 157.465 327.032 156.873C326.186 156.238 325.255 155.075 324.239 153.382V179.09H327.604C327.942 179.09 328.196 179.153 328.365 179.28C328.535 179.45 328.619 179.64 328.619 179.852L328.429 180.359C328.217 180.529 327.942 180.613 327.604 180.613H310.401C310.19 180.613 310.021 180.529 309.894 180.359C309.767 180.232 309.703 180.063 309.703 179.852C309.703 179.598 309.767 179.407 309.894 179.28C310.021 179.153 310.19 179.09 310.401 179.09H312.877V90.54ZM324.239 145.13C324.239 148.685 324.768 151.266 325.826 152.874C326.546 153.932 327.371 154.461 328.302 154.461C329.021 154.461 329.571 154.186 329.952 153.636C330.502 152.874 330.777 151.499 330.777 149.51V95.2373C330.777 93.5869 330.545 92.4443 330.079 91.8096C329.614 91.1748 329.085 90.8574 328.492 90.8574C327.561 90.8574 326.715 91.4287 325.953 92.5713C324.811 94.2217 324.239 96.6973 324.239 99.998V145.13ZM349.439 90.54H347.091C346.71 90.2861 346.52 90.0322 346.52 89.7783C346.52 89.4821 346.71 89.1859 347.091 88.8896H360.802V152.62C360.802 153.128 360.929 153.509 361.183 153.763C361.437 154.017 361.796 154.144 362.262 154.144C363.193 154.144 364.124 153.466 365.055 152.112C366.536 149.996 367.276 147.415 367.276 144.368V90.54H364.801C364.589 90.54 364.42 90.4766 364.293 90.3496C364.208 90.2227 364.166 90.0111 364.166 89.7148C364.166 89.4609 364.208 89.2705 364.293 89.1436C364.42 88.9743 364.589 88.8896 364.801 88.8896H378.702V155.35H380.86C381.072 155.35 381.241 155.434 381.368 155.604C381.537 155.73 381.622 155.921 381.622 156.175C381.622 156.429 381.537 156.64 381.368 156.81C381.241 156.937 381.072 157 380.86 157H367.276V151.922C365.922 154.08 364.526 155.604 363.087 156.492C361.69 157.339 360.019 157.762 358.072 157.762C355.237 157.762 353.079 157.021 351.598 155.54C350.159 154.017 349.439 151.985 349.439 149.446V90.54ZM389.493 90.54H386.51C386.129 90.54 385.833 90.4554 385.621 90.2861C385.41 90.1169 385.304 89.9053 385.304 89.6514C385.304 89.3551 385.494 89.0378 385.875 88.6992C389.43 85.9486 392.011 83.2191 393.619 80.5107C395.227 77.7601 396.645 74.5651 397.872 70.9258C398.761 68.3021 399.226 66.4824 399.269 65.4668L399.396 62.5469C399.522 62.3353 399.713 62.2295 399.967 62.2295C400.221 62.2295 400.411 62.293 400.538 62.4199C400.707 62.5469 400.792 62.7161 400.792 62.9277V88.8896H410.25C410.589 88.8896 410.842 88.9743 411.012 89.1436C411.223 89.3128 411.329 89.5033 411.329 89.7148C411.329 89.9688 411.244 90.1592 411.075 90.2861C410.864 90.4554 410.589 90.54 410.25 90.54H400.792V149.637C400.792 151.456 401.046 152.705 401.554 153.382C401.892 153.89 402.4 154.144 403.077 154.144C404.516 154.144 405.785 153.318 406.886 151.668C408.536 149.214 409.361 145.447 409.361 140.369V131.102C409.361 130.509 409.488 130.044 409.742 129.705C409.911 129.493 410.123 129.388 410.377 129.388C410.631 129.388 410.842 129.493 411.012 129.705C411.266 130.044 411.393 130.509 411.393 131.102V138.147C411.393 145.299 410.25 150.356 407.965 153.318C405.722 156.281 402.908 157.762 399.522 157.762C396.349 157.762 394.021 156.894 392.54 155.159C390.509 152.832 389.493 149.531 389.493 145.257V90.54ZM416.026 127.61V115.169C416.026 105.224 417.698 97.9245 421.041 93.2695C423.495 89.8418 426.627 88.1279 430.436 88.1279C435.217 88.1279 438.878 90.6458 441.417 95.6816C443.998 100.717 445.289 107.382 445.289 115.677V129.451C445.289 140.242 443.639 147.986 440.338 152.684C437.968 156.069 434.815 157.762 430.88 157.762C428.595 157.762 426.5 157.169 424.596 155.984C422.734 154.799 421.041 152.662 419.518 149.573C417.994 146.484 417.021 142.379 416.598 137.259C416.217 132.138 416.026 128.922 416.026 127.61ZM433.927 96.3164C433.927 93.9466 433.567 92.2962 432.848 91.3652C432.171 90.3919 431.367 89.9053 430.436 89.9053C429.632 89.9053 428.912 90.3073 428.277 91.1113C427.643 91.873 427.325 93.0579 427.325 94.666V147.986C427.325 151.329 427.706 153.593 428.468 154.778C429.06 155.625 429.864 156.048 430.88 156.048C431.853 156.048 432.594 155.688 433.102 154.969C433.652 154.207 433.927 152.599 433.927 150.145V96.3164Z" fill="#3E5C77"/>
<path d="M217.178 144.368C217.178 148.092 215.781 151.245 212.988 153.826C210.238 156.365 206.746 157.635 202.515 157.635C198.283 157.635 194.771 156.365 191.978 153.826C189.185 151.245 187.788 148.092 187.788 144.368V102.029C187.788 98.3053 189.185 95.1738 191.978 92.6348C194.771 90.0534 198.283 88.7627 202.515 88.7627C206.746 88.7627 210.238 90.0534 212.988 92.6348C215.781 95.1738 217.178 98.3053 217.178 102.029V110.091H207.021V96.3164C207.021 92.8464 205.519 91.1113 202.515 91.1113C199.468 91.1113 197.944 92.8464 197.944 96.3164V150.081C197.944 153.551 199.468 155.286 202.515 155.286C205.519 155.286 207.021 153.551 207.021 150.081V136.307H217.178V144.368Z" fill="#3E5C77"/>
<path d="M94.4 86C94.4 90.72 95.44 94.76 97.52 98.12C99.68 101.4 102.52 103.92 106.04 105.68C109.56 107.36 113.44 108.2 117.68 108.2C121.68 108.2 125.16 107.68 128.12 106.64C131.08 105.6 133.72 104.28 136.04 102.68C138.36 101 140.4 99.24 142.16 97.4V121.88C138.88 124.28 135.24 126.28 131.24 127.88C127.32 129.4 122.28 130.16 116.12 130.16C109.16 130.16 102.76 129.12 96.92 127.04C91.08 124.96 86.08 121.96 81.92 118.04C77.76 114.12 74.52 109.48 72.2 104.12C69.96 98.68 68.84 92.64 68.84 86C68.84 79.36 69.96 73.36 72.2 68C74.52 62.56 77.76 57.88 81.92 53.96C86.08 50.04 91.08 47.04 96.92 44.96C102.76 42.88 109.16 41.84 116.12 41.84C122.28 41.84 127.32 42.6 131.24 44.12C135.24 45.64 138.88 47.64 142.16 50.12V74.6C140.4 72.76 138.36 71.04 136.04 69.44C133.72 67.76 131.08 66.4 128.12 65.36C125.16 64.32 121.68 63.8 117.68 63.8C113.44 63.8 109.56 64.68 106.04 66.44C102.52 68.12 99.68 70.64 97.52 74C95.44 77.28 94.4 81.28 94.4 86Z" fill="#3E5C77"/>
<path d="M25.64 44H48.92V128H25.64V44ZM40.52 62.84V44H56.72C64.4 44 70.72 45.16 75.68 47.48C80.72 49.72 84.44 52.92 86.84 57.08C89.32 61.24 90.56 66.24 90.56 72.08C90.56 77.84 89.32 82.84 86.84 87.08C84.44 91.32 80.72 94.56 75.68 96.8C70.72 99.04 64.4 100.16 56.72 100.16H40.52V81.44H56.72C60.4 81.44 63.24 80.64 65.24 79.04C67.24 77.44 68.24 75.12 68.24 72.08C68.24 69.12 67.24 66.84 65.24 65.24C63.24 63.64 60.4 62.84 56.72 62.84H40.52Z" fill="#DE3144"/>
<circle cx="118" cy="86" r="17" fill="#DE3144"/>
<g filter="url(#filter0_d_106_95)">
<path d="M8 149.442H161.84C162.593 149.442 163.076 148.64 162.724 147.974L152.194 128.067C152.07 127.833 152.044 127.558 152.122 127.305L183.391 26.0531C183.461 25.8258 183.616 25.6272 183.817 25.5005C226.039 -1.08382 258.234 15.811 321 65.9418" stroke="#DE3144" stroke-width="15" stroke-linejoin="round"/>
</g>
<circle cx="7.5" cy="149.442" r="7.5" fill="#DE3144"/>
<circle cx="321.5" cy="66.4419" r="7.5" fill="#DE3144"/>
<defs>
<filter id="filter0_d_106_95" x="4" y="5.49988" width="325.68" height="159.442" filterUnits="userSpaceOnUse" color-interpolation-filters="sRGB">
<feFlood flood-opacity="0" result="BackgroundImageFix"/>
<feColorMatrix in="SourceAlpha" type="matrix" values="0 0 0 0 0 0 0 0 0 0 0 0 0 0 0 0 0 0 127 0" result="hardAlpha"/>
<feOffset dy="4"/>
<feGaussianBlur stdDeviation="2"/>
<feComposite in2="hardAlpha" operator="out"/>
<feColorMatrix type="matrix" values="0 0 0 0 0 0 0 0 0 0 0 0 0 0 0 0 0 0 0.25 0"/>
<feBlend mode="normal" in2="BackgroundImageFix" result="effect1_dropShadow_106_95"/>
<feBlend mode="normal" in="SourceGraphic" in2="effect1_dropShadow_106_95" result="shape"/>
</filter>
</defs>
</svg>
